<svg id="visual" viewBox="0 0 1360 355" width="1360" height="355" xmlns="http://www.w3.org/2000/svg" xmlns:xlink="http://www.w3.org/1999/xlink" version="1.1"><rect x="0" y="0" width="1360" height="355" fill="#001220"></rect><path d="M0 217L32.3 217.8C64.7 218.7 129.3 220.3 194.2 223.2C259 226 324 230 388.8 231.5C453.7 233 518.3 232 583 231.5C647.7 231 712.3 231 777 231C841.7 231 906.3 231 971.2 232C1036 233 1101 235 1165.8 231.8C1230.7 228.7 1295.3 220.3 1327.7 216.2L1360 212L1360 356L1327.7 356C1295.3 356 1230.7 356 1165.8 356C1101 356 1036 356 971.2 356C906.3 356 841.7 356 777 356C712.3 356 647.7 356 583 356C518.3 356 453.7 356 388.8 356C324 356 259 356 194.2 356C129.3 356 64.7 356 32.3 356L0 356Z" fill="#fa7268"></path><path d="M0 233L32.3 235.3C64.7 237.7 129.3 242.3 194.2 247.7C259 253 324 259 388.8 264.2C453.7 269.3 518.3 273.7 583 276.2C647.7 278.7 712.3 279.3 777 275.2C841.7 271 906.3 262 971.2 261.8C1036 261.7 1101 270.3 1165.8 270.2C1230.7 270 1295.3 261 1327.7 256.5L1360 252L1360 356L1327.7 356C1295.3 356 1230.7 356 1165.8 356C1101 356 1036 356 971.2 356C906.3 356 841.7 356 777 356C712.3 356 647.7 356 583 356C518.3 356 453.7 356 388.8 356C324 356 259 356 194.2 356C129.3 356 64.7 356 32.3 356L0 356Z" fill="#ef5f67"></path><path d="M0 291L32.3 292.2C64.7 293.3 129.3 295.7 194.2 293.5C259 291.3 324 284.7 388.8 281.2C453.7 277.7 518.3 277.3 583 280.3C647.7 283.3 712.3 289.7 777 286.8C841.7 284 906.3 272 971.2 268C1036 264 1101 268 1165.8 273.3C1230.7 278.7 1295.3 285.3 1327.7 288.7L1360 292L1360 356L1327.7 356C1295.3 356 1230.7 356 1165.8 356C1101 356 1036 356 971.2 356C906.3 356 841.7 356 777 356C712.3 356 647.7 356 583 356C518.3 356 453.7 356 388.8 356C324 356 259 356 194.2 356C129.3 356 64.7 356 32.3 356L0 356Z" fill="#e34c67"></path><path d="M0 285L32.3 290.2C64.7 295.3 129.3 305.7 194.2 309.8C259 314 324 312 388.8 309.5C453.7 307 518.3 304 583 305C647.7 306 712.3 311 777 310C841.7 309 906.3 302 971.2 298.7C1036 295.3 1101 295.7 1165.8 299C1230.7 302.3 1295.3 308.7 1327.7 311.8L1360 315L1360 356L1327.7 356C1295.3 356 1230.7 356 1165.8 356C1101 356 1036 356 971.2 356C906.3 356 841.7 356 777 356C712.3 356 647.7 356 583 356C518.3 356 453.7 356 388.8 356C324 356 259 356 194.2 356C129.3 356 64.7 356 32.3 356L0 356Z" fill="#d53867"></path><path d="M0 320L32.3 318.8C64.7 317.7 129.3 315.3 194.2 318.3C259 321.3 324 329.7 388.8 332.2C453.7 334.7 518.3 331.3 583 328.7C647.7 326 712.3 324 777 321.8C841.7 319.7 906.3 317.3 971.2 317C1036 316.7 1101 318.3 1165.8 317.5C1230.7 316.7 1295.3 313.3 1327.7 311.7L1360 310L1360 356L1327.7 356C1295.3 356 1230.7 356 1165.8 356C1101 356 1036 356 971.2 356C906.3 356 841.7 356 777 356C712.3 356 647.7 356 583 356C518.3 356 453.7 356 388.8 356C324 356 259 356 194.2 356C129.3 356 64.7 356 32.3 356L0 356Z" fill="#c62368"></path></svg>