<svg id="visual" viewBox="0 0 1365 700" width="1365" height="700" xmlns="http://www.w3.org/2000/svg" xmlns:xlink="http://www.w3.org/1999/xlink" version="1.1"><path d="M0 64L20.7 79.2C41.3 94.3 82.7 124.7 124 122.3C165.3 120 206.7 85 248 75.7C289.3 66.3 330.7 82.7 372 99C413.3 115.3 454.7 131.7 496 137.5C537.3 143.3 578.7 138.7 620.2 129.3C661.7 120 703.3 106 744.8 99C786.3 92 827.7 92 869 90.8C910.3 89.7 951.7 87.3 993 82.7C1034.3 78 1075.7 71 1117 72.2C1158.3 73.3 1199.7 82.7 1241 81.5C1282.3 80.3 1323.7 68.7 1344.3 62.8L1365 57L1365 0L1344.3 0C1323.7 0 1282.3 0 1241 0C1199.7 0 1158.3 0 1117 0C1075.7 0 1034.3 0 993 0C951.7 0 910.3 0 869 0C827.7 0 786.3 0 744.8 0C703.3 0 661.7 0 620.2 0C578.7 0 537.3 0 496 0C454.7 0 413.3 0 372 0C330.7 0 289.3 0 248 0C206.7 0 165.3 0 124 0C82.7 0 41.3 0 20.7 0L0 0Z" fill="#6198ff"></path><path d="M0 246L20.7 246C41.3 246 82.7 246 124 232C165.3 218 206.7 190 248 184.2C289.3 178.3 330.7 194.7 372 208.7C413.3 222.7 454.7 234.3 496 230.8C537.3 227.3 578.7 208.7 620.2 207.5C661.7 206.3 703.3 222.7 744.8 227.3C786.3 232 827.7 225 869 223.8C910.3 222.7 951.7 227.3 993 223.8C1034.3 220.3 1075.7 208.7 1117 208.7C1158.3 208.7 1199.7 220.3 1241 225C1282.3 229.7 1323.7 227.3 1344.3 226.2L1365 225L1365 55L1344.3 60.8C1323.7 66.7 1282.3 78.3 1241 79.5C1199.7 80.7 1158.3 71.3 1117 70.2C1075.7 69 1034.3 76 993 80.7C951.7 85.3 910.3 87.7 869 88.8C827.7 90 786.3 90 744.8 97C703.3 104 661.7 118 620.2 127.3C578.7 136.7 537.3 141.3 496 135.5C454.7 129.7 413.3 113.3 372 97C330.7 80.7 289.3 64.3 248 73.7C206.7 83 165.3 118 124 120.3C82.7 122.7 41.3 92.3 20.7 77.2L0 62Z" fill="#3c80ff"></path><path d="M0 463L20.7 475.8C41.3 488.7 82.7 514.3 124 495.7C165.3 477 206.7 414 248 401.2C289.3 388.3 330.7 425.7 372 443.2C413.3 460.7 454.7 458.3 496 461.8C537.3 465.3 578.7 474.7 620.2 481.7C661.7 488.7 703.3 493.3 744.8 496.8C786.3 500.3 827.7 502.7 869 491C910.3 479.3 951.7 453.7 993 424.5C1034.3 395.3 1075.7 362.7 1117 366.2C1158.3 369.7 1199.7 409.3 1241 435C1282.3 460.7 1323.7 472.3 1344.3 478.2L1365 484L1365 223L1344.3 224.2C1323.7 225.3 1282.3 227.7 1241 223C1199.7 218.3 1158.3 206.7 1117 206.7C1075.7 206.7 1034.3 218.3 993 221.8C951.7 225.3 910.3 220.7 869 221.8C827.7 223 786.3 230 744.8 225.3C703.3 220.7 661.7 204.3 620.2 205.5C578.7 206.7 537.3 225.3 496 228.8C454.7 232.3 413.3 220.7 372 206.7C330.7 192.7 289.3 176.3 248 182.2C206.7 188 165.3 216 124 230C82.7 244 41.3 244 20.7 244L0 244Z" fill="#0066ff"></path><path d="M0 519L20.7 531.8C41.3 544.7 82.7 570.3 124 561C165.3 551.7 206.7 507.3 248 500.3C289.3 493.3 330.7 523.7 372 533C413.3 542.3 454.7 530.7 496 538.8C537.3 547 578.7 575 620.2 579.7C661.7 584.3 703.3 565.7 744.8 556.3C786.3 547 827.7 547 869 538.8C910.3 530.7 951.7 514.3 993 498C1034.3 481.7 1075.7 465.3 1117 464.2C1158.3 463 1199.7 477 1241 498C1282.3 519 1323.7 547 1344.3 561L1365 575L1365 482L1344.3 476.2C1323.7 470.3 1282.3 458.7 1241 433C1199.7 407.3 1158.3 367.7 1117 364.2C1075.7 360.7 1034.3 393.3 993 422.5C951.7 451.7 910.3 477.3 869 489C827.7 500.7 786.3 498.3 744.8 494.8C703.3 491.3 661.7 486.7 620.2 479.7C578.7 472.7 537.3 463.3 496 459.8C454.7 456.3 413.3 458.7 372 441.2C330.7 423.7 289.3 386.3 248 399.2C206.7 412 165.3 475 124 493.7C82.7 512.3 41.3 486.7 20.7 473.8L0 461Z" fill="#0059dd"></path><path d="M0 701L20.7 701C41.3 701 82.7 701 124 701C165.3 701 206.7 701 248 701C289.3 701 330.7 701 372 701C413.3 701 454.7 701 496 701C537.3 701 578.7 701 620.2 701C661.7 701 703.3 701 744.8 701C786.3 701 827.7 701 869 701C910.3 701 951.7 701 993 701C1034.3 701 1075.7 701 1117 701C1158.3 701 1199.7 701 1241 701C1282.3 701 1323.7 701 1344.3 701L1365 701L1365 573L1344.3 559C1323.7 545 1282.3 517 1241 496C1199.7 475 1158.3 461 1117 462.2C1075.7 463.3 1034.3 479.7 993 496C951.7 512.3 910.3 528.7 869 536.8C827.7 545 786.3 545 744.8 554.3C703.3 563.7 661.7 582.3 620.2 577.7C578.7 573 537.3 545 496 536.8C454.7 528.7 413.3 540.3 372 531C330.7 521.7 289.3 491.3 248 498.3C206.7 505.3 165.3 549.7 124 559C82.7 568.3 41.3 542.7 20.7 529.8L0 517Z" fill="#004cbb"></path></svg>